<svg xmlns="http://www.w3.org/2000/svg" width="25" height="25" viewBox="0 0 20 20" fill-rule="evenodd"><path d="M15.807 2.773h-1.664v-1.6h-1.6v1.6H7.71v-1.6h-1.6v1.6H4.442c-1.248 0-2.268 1.02-2.268 2.268v11.397c0 1.248 1.02 2.268 2.268 2.268h11.364c1.248 0 2.268-1.02 2.268-2.268V5.04c0-1.247-1.02-2.267-2.268-2.267zm.668 13.664c0 .363-.306.67-.668.67H4.443c-.36-.002-.668-.307-.668-.67V5.04c0-.362.307-.667.668-.667h11.364c.362 0 .668.305.668.668v11.397z"/><path d="M6.11 6.74h1.6v1.6h-1.6v-1.6zM12.543 6.74h1.6v1.6h-1.6v-1.6zM9.326 6.74h1.6v1.6h-1.6v-1.6zM6.11 9.94h1.6v1.6h-1.6v-1.6zM12.543 9.94h1.6v1.6h-1.6v-1.6zM9.326 9.94h1.6v1.6h-1.6v-1.6zM6.11 13.126h1.6v1.6h-1.6v-1.6zM12.543 13.126h1.6v1.6h-1.6v-1.6zM9.326 13.126h1.6v1.6h-1.6v-1.6z"/></svg>