<svg xmlns="http://www.w3.org/2000/svg" width="12" height="12" viewBox="0 0 9.6000003 9.5999996" fill-rule="evenodd"><path d="M9.192 3.774c-.072-.208-.277-.35-.508-.35H6.118l-.792-2.308c-.072-.208-.276-.35-.508-.35-.23 0-.436.142-.507.35l-.792 2.31H.952c-.23 0-.436.14-.508.348-.07.21.007.436.194.565l2.076 1.426-.793 2.31c-.07.208.008.435.196.564.186.128.44.128.626 0l2.076-1.428L6.894 8.64c.093.064.203.096.313.096.11 0 .22-.032.314-.096.188-.13.266-.356.195-.565l-.793-2.31L8.998 4.34c.187-.13.265-.357.194-.566z"/></svg>