<svg xmlns="http://www.w3.org/2000/svg" width="25" height="25" viewBox="0 0 20.000001 19.999999" fill-rule="evenodd"><path d="M14.825 3.635H5.37c-.5 0-.928.178-1.284.534-.356.354-.534.782-.534 1.282v9.455c0 .5.178.928.534 1.284.356.357.784.535 1.284.535h9.455c.5 0 .928-.178 1.284-.534.354-.355.532-.783.532-1.283V5.453c0-.5-.178-.928-.534-1.284-.357-.358-.785-.536-1.285-.536zm3.272 1.818v9.455c0 .902-.32 1.672-.96 2.312-.64.64-1.41.96-2.312.96H5.37c-.902 0-1.672-.32-2.313-.96-.64-.64-.96-1.41-.96-2.312V5.453c0-.9.32-1.672.96-2.312.64-.64 1.41-.96 2.313-.96h9.455c.9 0 1.672.32 2.312.96.64.64.96 1.413.96 2.314z" fill="#b5b5b5"/></svg>