<svg xmlns="http://www.w3.org/2000/svg" width="40" height="40" viewBox="0 0 32 32" fill-rule="evenodd"><path d="M27.592 10.044H17.712c5.506-2.76 5.945-4.5 5.743-5.474-.464-1.586-2.27-2.81-3.988-2.163-2.22.835-2.845 4.155-3.446 6.555-.766-2.428-1.508-5.526-3.243-7.095-.503-.456-1.234-.906-2.298-.81-1.606.14-3.91 2.15-2.974 4.39.897 2.152 3.862 3.51 5.81 4.596H4.38c-.63 0-1.147.517-1.147 1.148v4.53c0 .63.516 1.147 1.148 1.147h.11V31.443h23.06V16.867h.043c.63 0 1.148-.516 1.148-1.147v-4.53c0-.63-.516-1.146-1.148-1.146zm-7.45-6.623c.84-.123 1.988.52 2.096 1.285.157 1.102-1.355 2.102-2.027 2.568-1.005.698-1.964 1.057-2.905 1.622.353-1.476 1.016-5.204 2.838-5.474zM11.02 7.41C10.132 6.814 8.41 5.636 8.45 4.3c.044-1.44 2.29-2.63 3.514-1.555 1.537 1.35 2.277 4.443 2.838 6.623-1.295-.615-2.522-1.115-3.785-1.96zm2.38 22.846H5.68V16.867h7.72v13.387zm0-14.6H4.448v-4.396H13.4v4.395zm4.05 0V30.253h-2.86V11.258h2.86v4.395zm8.912 14.6H18.64V16.867h7.722v13.387zm1.164-14.6H18.64v-4.396h8.886v4.395z"/></svg>