<?xml version="1.0" encoding="UTF-8" standalone="no"?>
<!-- Created with Inkscape (http://www.inkscape.org/) -->

<svg
   xmlns:dc="http://purl.org/dc/elements/1.1/"
   xmlns:cc="http://creativecommons.org/ns#"
   xmlns:rdf="http://www.w3.org/1999/02/22-rdf-syntax-ns#"
   xmlns:svg="http://www.w3.org/2000/svg"
   xmlns="http://www.w3.org/2000/svg"
   xmlns:sodipodi="http://sodipodi.sourceforge.net/DTD/sodipodi-0.dtd"
   xmlns:inkscape="http://www.inkscape.org/namespaces/inkscape"
   width="210mm"
   height="297mm"
   viewBox="0 0 744.09448819 1052.3622047"
   id="svg2"
   version="1.1"
   inkscape:version="0.91 r13725"
   sodipodi:docname="icon-checkbox-active.svg">
  <defs
     id="defs4" />
  <sodipodi:namedview
     id="base"
     pagecolor="#ffffff"
     bordercolor="#666666"
     borderopacity="1.0"
     inkscape:pageopacity="0.0"
     inkscape:pageshadow="2"
     inkscape:zoom="0.35"
     inkscape:cx="375"
     inkscape:cy="520"
     inkscape:document-units="px"
     inkscape:current-layer="layer1"
     showgrid="false"
     inkscape:window-width="1366"
     inkscape:window-height="721"
     inkscape:window-x="-4"
     inkscape:window-y="-4"
     inkscape:window-maximized="1" />
  <metadata
     id="metadata7">
    <rdf:RDF>
      <cc:Work
         rdf:about="">
        <dc:format>image/svg+xml</dc:format>
        <dc:type
           rdf:resource="http://purl.org/dc/dcmitype/StillImage" />
        <dc:title></dc:title>
      </cc:Work>
    </rdf:RDF>
  </metadata>
  <g
     inkscape:label="Layer 1"
     inkscape:groupmode="layer"
     id="layer1">
    <path
       id="path3349"
       d="m 564.54414,332.76049 0,177.444 q 0,66.402 -47.151,113.553 -47.151,47.151 -113.553,47.151 l -464.255997,0 q -66.402003,0 -113.553003,-47.151 -47.151,-47.151 -47.151,-113.553 l 0,-464.256 q 0,-66.402 47.151,-113.553 47.151,-47.151 113.553003,-47.151 l 464.255997,0 q 35.154,0 65.286,13.95 8.37,3.906 10.044,12.834 1.674,9.486 -5.022,16.182 l -27.342,27.342 q -5.58,5.58 -12.834,5.58 -1.674,0 -5.022,-1.116 -12.834,-3.348 -25.11,-3.348 l -464.255997,0 q -36.828,0 -63.054003,26.226 -26.226,26.2260004 -26.226,63.054 l 0,464.256 q 0,36.828 26.226,63.054 26.226003,26.226 63.054003,26.226 l 464.255997,0 q 36.828,0 63.054,-26.226 26.226,-26.226 26.226,-63.054 l 0,-141.732 q 0,-7.254 5.022,-12.276 l 35.712,-35.712 q 5.58,-5.58 12.834,-5.58 3.348,0 6.696,1.674 11.16,4.464 11.16,16.182 z m 128.898,-272.862 -454.212,454.212 q -13.392,13.392 -31.806,13.392 -18.414,0 -31.806,-13.392 l -239.939997,-239.94 q -13.392,-13.392 -13.392,-31.806 0,-18.414 13.392,-31.806 l 61.3799999,-61.38 q 13.3920001,-13.392 31.8060001,-13.392 18.414,0 31.806,13.392 l 146.753997,146.754 361.026,-361.026 q 13.392,-13.392 31.806,-13.392 18.414,0 31.806,13.392 l 61.38,61.3800004 q 13.392,13.392 13.392,31.8059996 0,18.414 -13.392,31.806 z"
       inkscape:connector-curvature="0"
       style="fill:#000000" />
  </g>
</svg>
