<svg xmlns="http://www.w3.org/2000/svg" width="18" height="15" viewBox="0 0 14.400001 11.999999" fill-rule="evenodd"><path d="M9.224.314c1.388-.388 2.46.21 2.948.92.555-.18 1.097-.376 1.657-.552-.004.673-.43 1.182-.707 1.382.563.132 1.074-.385 1.074-.385-.14.78-.828 1.396-1.29 1.58-.19 5.274-2.616 8.766-8.304 8.66h-.368c-.338 0-3.432-.36-4.038-1.475 1.873.153 3.21-.33 3.868-.92-.79-.235-2.21-.37-2.456-2.305.29.084.466.18.982.094-.99-.67-2.087-1.23-2.026-2.948.235.255.88.418 1.105.37C1.09 4.545.048 2.11.935.865c1.498 1.45 3.078 2.817 5.895 2.948C7 2.022 7.765.822 9.223.314z"/></svg>