<svg xmlns="http://www.w3.org/2000/svg" width="40" height="40" viewBox="0 0 32.000001 31.999999" fill-rule="evenodd"><path d="M13.03 19.072v8.519h6.34v-9.487h-6.34v.966zm5.175 7.355h-4.012V19.27h4.012v7.157z"/><path d="M30.115 17.326l.823-.823-3.927-3.93V1.884h-5.473V7.1l-5.4-5.403-14.8 14.806.824.823 3.104-3.103v14.98h-1.56v1.163h25.312v-1.164H27.01v-14.98l3.105 3.104zM22.702 3.048h3.146v8.363l-3.146-3.146V3.048zM25.847 29.2H6.427V13.06l9.71-9.71 9.71 9.71V29.2z"/><path d="M13.128 12.48c0 1.696 1.375 3.07 3.07 3.07 1.697 0 3.072-1.374 3.072-3.07 0-1.696-1.375-3.07-3.07-3.07-1.697 0-3.072 1.374-3.072 3.07zm3.07-1.97c1.09 0 1.97.882 1.97 1.97s-.88 1.97-1.97 1.97c-1.087 0-1.968-.882-1.968-1.97s.882-1.97 1.97-1.97zM8.038 18.106h1.19v1.56h-1.19v-1.56zM10.39 18.106h1.19v1.56h-1.19v-1.56zM8.038 20.483h1.19v1.56h-1.19v-1.56zM10.39 20.483h1.19v1.56h-1.19v-1.56zM20.694 18.106h1.19v1.56h-1.19v-1.56zM23.047 18.106h1.19v1.56h-1.19v-1.56zM20.694 20.483h1.19v1.56h-1.19v-1.56zM23.047 20.483h1.19v1.56h-1.19v-1.56z"/></svg>