<svg xmlns="http://www.w3.org/2000/svg" width="40" height="40" viewBox="0 0 32.000001 31.999999" fill-rule="evenodd"><path d="M29.49 20.646H2.488c-.934 0-1.7.763-1.7 1.697v1.38c0 .932.766 1.695 1.7 1.695h.38v.414c0 2.18 1.782 3.96 3.96 3.96H25.15c2.178 0 3.96-1.78 3.96-3.96v-.414h.38c.935 0 1.698-.763 1.698-1.696v-1.38c0-.933-.763-1.696-1.697-1.696zm-1.578 5.186c0 1.524-1.238 2.763-2.762 2.763H6.827c-1.523 0-2.762-1.24-2.762-2.763v-.414h23.847v.414zm2.08-2.11c0 .27-.23.5-.5.5H2.486c-.272 0-.5-.23-.5-.5v-1.38c0-.27.228-.5.5-.5H29.49c.272 0 .5.23.5.5v1.38zM11.61 17.38l2.186 1.595 2.187-1.596 2.187 1.595 2.186-1.596 2.187 1.595 2.187-1.597 2.19 1.597 2.543-1.853-.706-.968-1.836 1.34-2.19-1.597-2.187 1.596-2.187-1.596-2.186 1.596-2.187-1.596-2.187 1.596-2.186-1.596-2.186 1.596-2.184-1.597-2.187 1.597-1.833-1.338-.706.966 2.54 1.855 2.185-1.596 2.183 1.595 2.187-1.596zM4.097 14.68H29.08c.018-.244.03-.49.03-.737 0-.154-.007-.307-.014-.46-.272-6.234-6.034-11.214-13.107-11.214-7.074 0-12.837 4.98-13.11 11.212-.006.154-.013.307-.013.46 0 .25.012.494.03.738h1.2zM15.99 3.466c6.397 0 11.633 4.453 11.91 10.016H4.077C4.354 7.92 9.59 3.466 15.988 3.466z"/><path d="M16.787 8.273c0 .44-.358.798-.798.798-.442 0-.8-.357-.8-.797 0-.44.358-.798.8-.798.44 0 .797.357.797.798zM13.594 6.294c0 .44-.358.798-.798.798-.44 0-.8-.358-.8-.798 0-.44.36-.8.8-.8.44 0 .798.36.798.8zM19.98 6.294c0 .44-.358.798-.798.798-.44 0-.8-.358-.8-.798 0-.44.36-.8.8-.8.44 0 .798.36.798.8z"/></svg>