<svg xmlns="http://www.w3.org/2000/svg" width="151" height="52" viewBox="0 0 120.8 41.599998" fill-rule="evenodd"><path d="M42.848 28.8c0 .905.81 1.368 1.734 1.368.983 0 1.947-.367 2.68-1.1v-1.56c-.56-.116-1.35-.23-2.005-.23-1.176 0-2.41.365-2.41 1.52m7.15 1.254c.213 0 .424-.058.617-.116v1.484c-.385.154-.848.23-1.31.23-.848 0-1.522-.326-1.85-1.078-.906.733-2.043 1.195-3.488 1.195-1.677 0-3.238-.925-3.238-2.833 0-2.37 2.197-3.102 4.124-3.102.79 0 1.677.115 2.41.27v-.328c0-1.157-.85-1.966-2.43-1.966-1.367 0-2.504.347-3.333.713v-1.888c.73-.25 2.06-.616 3.545-.616 2.62 0 4.278 1.252 4.278 4.047v3.314c0 .52.308.675.675.675zM56.57 22.016c1.04 0 2.042.23 2.85.713v1.887c-.673-.48-1.618-.77-2.562-.77-1.638 0-3.296.867-3.296 3.044 0 2.102 1.6 3.046 3.257 3.046.982 0 1.965-.29 2.697-.713v1.908c-.886.425-1.888.637-3.064.637-2.466 0-4.99-1.503-4.99-4.798 0-3.45 2.64-4.954 5.106-4.954zM62.928 28.8c0 .905.81 1.368 1.735 1.368.983 0 1.946-.367 2.68-1.1v-1.56c-.56-.116-1.35-.23-2.006-.23-1.175 0-2.41.365-2.41 1.52m7.15 1.254c.213 0 .425-.058.618-.116v1.484c-.386.154-.848.23-1.31.23-.85 0-1.523-.326-1.85-1.078-.906.733-2.044 1.195-3.49 1.195-1.675 0-3.236-.925-3.236-2.833 0-2.37 2.196-3.102 4.123-3.102.79 0 1.676.115 2.41.27v-.328c0-1.157-.85-1.966-2.43-1.966-1.368 0-2.505.347-3.334.713v-1.888c.732-.25 2.062-.616 3.545-.616 2.62 0 4.278 1.252 4.278 4.047v3.314c0 .52.31.675.675.675zM76.495 23.827c-1.657 0-2.87 1.253-2.87 3.064 0 1.813 1.213 3.066 2.87 3.066 1.446 0 2.506-.926 2.95-1.947v-2.256c-.444-1.002-1.504-1.927-2.95-1.927m5.03-5.8v13.49h-1.85V30.05c-.713.906-1.81 1.715-3.546 1.715-2.795 0-4.587-2.216-4.587-4.876 0-2.658 1.792-4.874 4.586-4.874 1.618 0 2.697.713 3.333 1.445v-5.433h2.062zM88.31 23.73c-1.39 0-2.64.83-2.72 2.39h5.127c.116-.81-.384-2.39-2.408-2.39m-.098-1.714c3.68 0 4.953 2.968 4.356 5.646H85.61c.232 1.658 1.85 2.35 3.547 2.35 1.117 0 2.14-.27 2.93-.654v1.773c-.85.406-2.025.637-3.316.637-2.832 0-5.24-1.62-5.24-4.875 0-3.354 2.543-4.876 4.682-4.876zM94.668 31.516v-9.25h1.83v1.157c.502-.56 1.58-1.407 3.085-1.407 1.387 0 2.35.578 2.89 1.484.81-.81 1.89-1.484 3.238-1.484 2.448 0 3.508 1.81 3.508 3.72v5.78h-2.062v-5.723c0-1.195-.713-1.946-1.83-1.946-1.022 0-1.812.674-2.294 1.252.02.21.04.423.04.635v5.78h-2.063v-5.722c0-1.195-.714-1.946-1.832-1.946s-1.966.81-2.448 1.426v6.243h-2.062zM118.315 22.266h2.158l-4.336 10.503c-1.002 2.408-2.313 3.218-3.72 3.218-.404 0-.81-.058-1.214-.155V34.08c.31.096.636.135.945.135 1.002 0 1.753-.714 2.293-2.16l.194-.46-4.394-9.33h2.197l3.122 6.977 2.755-6.976zM43.455 1.83v5.26c.675-.692 1.735-1.27 2.987-1.27 2.332 0 3.816 1.58 3.816 3.777v5.723h-2.062V9.867c0-1.504-.925-2.217-2.16-2.217-1.174 0-2.06.79-2.58 1.542v6.128h-2.063V1.83h2.062zM55.905 2.775V6.07h3.353v1.812h-3.353v4.24c0 1.213.558 1.618 1.753 1.618.675 0 1.29-.135 1.87-.366v1.773c-.694.25-1.58.405-2.487.405-1.79 0-3.178-.887-3.178-3.045V7.882h-1.657V6.07h1.657V3.276l2.043-.5zM61.897 15.32V6.07h1.83v1.156c.5-.56 1.58-1.407 3.084-1.407 1.39 0 2.352.578 2.892 1.483.81-.81 1.888-1.484 3.237-1.484 2.447 0 3.506 1.81 3.506 3.72v5.78h-2.062V9.597c0-1.195-.713-1.947-1.83-1.947-1.022 0-1.812.675-2.294 1.253.02.212.04.424.04.636v5.78h-2.063V9.597c0-1.195-.713-1.947-1.83-1.947-1.118 0-1.967.81-2.448 1.426v6.244h-2.063zM79.463 15.32h2.062V1.83h-2.062v13.49zM30.662 14.932l-14.114-8.32V6.61h-.004v.002l-13.958 8.31V3.818l14.038-1.472 14.038 1.472v11.114zm-.012 1.472l-3.84 2.263-1.773 1.045-8.455-5.03-.014 1.464 7.227 4.297-.064.038-.155.093-1.027.604-5.966-3.55-.014 1.465 4.71 2.8-1.112.744-.027.016-3.558-2.096-.014 1.464 2.334 1.375-2.378 1.427-13.908-8.267 13.928-8.372 14.106 8.22zm.012 13.912L16.624 38.67 2.586 30.315V18.183l13.977 8.32.024 1.507-9.59-5.707-.013 1.464 9.627 5.786.025 1.548-9.624-5.725-.013 1.464 9.627 5.785 9.72-5.815v-1.47l-.013.006V20.566l4.332-2.587v12.338zM16.792.24l-.17-.018L.473 1.915v29.602l16.152 9.61 16.15-9.61V1.915L16.794.24z"/></svg>