<?xml version="1.0" encoding="UTF-8" standalone="no"?>
<!-- Created with Inkscape (http://www.inkscape.org/) -->

<svg
   xmlns:dc="http://purl.org/dc/elements/1.1/"
   xmlns:cc="http://creativecommons.org/ns#"
   xmlns:rdf="http://www.w3.org/1999/02/22-rdf-syntax-ns#"
   xmlns:svg="http://www.w3.org/2000/svg"
   xmlns="http://www.w3.org/2000/svg"
   xmlns:sodipodi="http://sodipodi.sourceforge.net/DTD/sodipodi-0.dtd"
   xmlns:inkscape="http://www.inkscape.org/namespaces/inkscape"
   width="210mm"
   height="297mm"
   viewBox="0 0 744.09448819 1052.3622047"
   id="svg2"
   version="1.1"
   inkscape:version="0.91 r13725"
   sodipodi:docname="icon-star.svg">
  <defs
     id="defs4" />
  <sodipodi:namedview
     id="base"
     pagecolor="#ffffff"
     bordercolor="#666666"
     borderopacity="1.0"
     inkscape:pageopacity="0.0"
     inkscape:pageshadow="2"
     inkscape:zoom="0.35"
     inkscape:cx="375"
     inkscape:cy="520"
     inkscape:document-units="px"
     inkscape:current-layer="layer1"
     showgrid="false"
     inkscape:window-width="1366"
     inkscape:window-height="721"
     inkscape:window-x="-4"
     inkscape:window-y="-4"
     inkscape:window-maximized="1" />
  <metadata
     id="metadata7">
    <rdf:RDF>
      <cc:Work
         rdf:about="">
        <dc:format>image/svg+xml</dc:format>
        <dc:type
           rdf:resource="http://purl.org/dc/dcmitype/StillImage" />
        <dc:title></dc:title>
      </cc:Work>
    </rdf:RDF>
  </metadata>
  <g
     inkscape:label="Layer 1"
     inkscape:groupmode="layer"
     id="layer1">
    <g
       id="g3413"
       transform="translate(256.16692,374.2427)">
      <g
         id="g3370">
        <g
           id="Star">
          <g
             id="g3373">
            <path
               id="path3375"
               d="m 76.013,29.654 c -0.621,-1.806 -2.396,-3.023 -4.4,-3.023 l -22.23,0 L 42.516,6.623 C 41.895,4.826 40.124,3.599 38.119,3.599 c -2.005,0 -3.776,1.227 -4.396,3.024 l -6.871,20.007 -22.227,0 c -2.005,0 -3.779,1.218 -4.4,3.023 -0.617,1.806 0.061,3.776 1.682,4.89 L 19.891,46.91 13.02,66.916 c -0.616,1.805 0.061,3.774 1.685,4.889 1.617,1.113 3.814,1.113 5.431,0 L 38.119,59.44 56.102,71.805 c 0.81,0.557 1.765,0.835 2.716,0.835 0.955,0 1.91,-0.278 2.72,-0.835 1.621,-1.113 2.298,-3.084 1.681,-4.889 L 56.349,46.908 74.332,34.543 c 1.62,-1.113 2.297,-3.084 1.681,-4.889 z"
               inkscape:connector-curvature="0" />
          </g>
        </g>
      </g>
      <g
         id="g3377" />
      <g
         id="g3379" />
      <g
         id="g3381" />
      <g
         id="g3383" />
      <g
         id="g3385" />
      <g
         id="g3387" />
      <g
         id="g3389" />
      <g
         id="g3391" />
      <g
         id="g3393" />
      <g
         id="g3395" />
      <g
         id="g3397" />
      <g
         id="g3399" />
      <g
         id="g3401" />
      <g
         id="g3403" />
      <g
         id="g3405" />
    </g>
  </g>
</svg>
