<svg xmlns="http://www.w3.org/2000/svg" width="25" height="25" viewBox="0 0 20.000001 19.999999" fill-rule="evenodd"><path d="M16.545 11.705v3.614c0 .9-.32 1.67-.96 2.31-.64.64-1.41.96-2.313.96H3.817c-.9 0-1.672-.32-2.312-.96-.64-.64-.96-1.41-.96-2.312V5.863c0-.9.32-1.672.96-2.312.64-.64 1.41-.96 2.312-.96h9.455c.477 0 .92.095 1.33.285.113.053.18.14.204.26.023.13-.01.24-.102.33l-.557.558c-.076.075-.163.113-.26.113-.024 0-.058-.007-.104-.023-.174-.045-.344-.068-.51-.068H3.816c-.5 0-.928.178-1.284.534C2.177 4.935 2 5.363 2 5.863v9.455c0 .5.177.926.533 1.282.356.356.784.534 1.284.534h9.455c.5 0 .928-.178 1.284-.534.356-.356.534-.784.534-1.284V12.43c0-.1.034-.18.102-.25l.728-.727c.075-.075.163-.113.26-.113.047 0 .092.01.137.034.152.06.228.17.228.33zM19.17 6.15L9.92 15.4c-.182.18-.398.27-.648.27s-.466-.09-.648-.27l-4.886-4.89c-.182-.182-.273-.398-.273-.648s.09-.465.273-.647l1.25-1.25c.182-.182.398-.273.648-.273s.466.09.647.273l2.99 2.988 7.35-7.352c.183-.18.4-.272.65-.272s.465.09.647.273l1.25 1.25c.182.183.272.4.272.65s-.09.466-.272.65z" fill="#b5b5b5"/></svg>