<?xml version="1.0" encoding="UTF-8" standalone="no"?>
<!-- Created with Inkscape (http://www.inkscape.org/) -->

<svg
   xmlns:dc="http://purl.org/dc/elements/1.1/"
   xmlns:cc="http://creativecommons.org/ns#"
   xmlns:rdf="http://www.w3.org/1999/02/22-rdf-syntax-ns#"
   xmlns:svg="http://www.w3.org/2000/svg"
   xmlns="http://www.w3.org/2000/svg"
   xmlns:sodipodi="http://sodipodi.sourceforge.net/DTD/sodipodi-0.dtd"
   xmlns:inkscape="http://www.inkscape.org/namespaces/inkscape"
   width="210mm"
   height="297mm"
   viewBox="0 0 744.09448819 1052.3622047"
   id="svg2"
   version="1.1"
   inkscape:version="0.91 r13725"
   sodipodi:docname="lock91.svg">
  <defs
     id="defs4" />
  <sodipodi:namedview
     id="base"
     pagecolor="#ffffff"
     bordercolor="#666666"
     borderopacity="1.0"
     inkscape:pageopacity="0.0"
     inkscape:pageshadow="2"
     inkscape:zoom="0.35"
     inkscape:cx="375"
     inkscape:cy="634.28571"
     inkscape:document-units="px"
     inkscape:current-layer="layer1"
     showgrid="false"
     inkscape:window-width="1366"
     inkscape:window-height="721"
     inkscape:window-x="-4"
     inkscape:window-y="-4"
     inkscape:window-maximized="1" />
  <metadata
     id="metadata7">
    <rdf:RDF>
      <cc:Work
         rdf:about="">
        <dc:format>image/svg+xml</dc:format>
        <dc:type
           rdf:resource="http://purl.org/dc/dcmitype/StillImage" />
        <dc:title></dc:title>
      </cc:Work>
    </rdf:RDF>
  </metadata>
  <g
     inkscape:label="Layer 1"
     inkscape:groupmode="layer"
     id="layer1">
    <g
       id="g3471"
       transform="matrix(1,0,0,0.82380367,-45.628214,361.01921)">
      <g
         id="g3397">
        <g
           id="g3399">
          <g
             id="g3401">
            <path
               id="path3403"
               d="m 403.676,221.014 0,-68.746 C 403.697,68.293 335.339,0 251.407,0 167.411,0 99.096,68.293 99.096,152.268 l 0,68.768 -32.723,0 0,281.65 369.939,0 0,-281.672 -32.636,0 z M 156.453,152.268 c 0,-52.309 42.581,-94.825 94.933,-94.825 52.266,0 94.825,42.538 94.825,94.825 l 0,68.768 -189.758,0 0,-68.768 z m 121.098,273.194 -52.266,0 7.83,-77.202 c -9.664,-6.018 -16.178,-16.76 -16.178,-29.077 0,-18.961 15.402,-34.362 34.47,-34.362 18.961,0 34.319,15.402 34.319,34.362 0,12.317 -6.407,23.038 -16.157,29.077 l 7.982,77.202 z"
               style="fill:#010002"
               inkscape:connector-curvature="0" />
          </g>
        </g>
        <g
           id="g3405" />
        <g
           id="g3407" />
        <g
           id="g3409" />
        <g
           id="g3411" />
        <g
           id="g3413" />
        <g
           id="g3415" />
        <g
           id="g3417" />
        <g
           id="g3419" />
        <g
           id="g3421" />
        <g
           id="g3423" />
        <g
           id="g3425" />
        <g
           id="g3427" />
        <g
           id="g3429" />
        <g
           id="g3431" />
        <g
           id="g3433" />
      </g>
      <g
         id="g3435" />
      <g
         id="g3437" />
      <g
         id="g3439" />
      <g
         id="g3441" />
      <g
         id="g3443" />
      <g
         id="g3445" />
      <g
         id="g3447" />
      <g
         id="g3449" />
      <g
         id="g3451" />
      <g
         id="g3453" />
      <g
         id="g3455" />
      <g
         id="g3457" />
      <g
         id="g3459" />
      <g
         id="g3461" />
      <g
         id="g3463" />
    </g>
  </g>
</svg>
