<?xml version="1.0" encoding="UTF-8" standalone="no"?>
<!-- Created with Inkscape (http://www.inkscape.org/) -->

<svg
   xmlns:dc="http://purl.org/dc/elements/1.1/"
   xmlns:cc="http://creativecommons.org/ns#"
   xmlns:rdf="http://www.w3.org/1999/02/22-rdf-syntax-ns#"
   xmlns:svg="http://www.w3.org/2000/svg"
   xmlns="http://www.w3.org/2000/svg"
   xmlns:sodipodi="http://sodipodi.sourceforge.net/DTD/sodipodi-0.dtd"
   xmlns:inkscape="http://www.inkscape.org/namespaces/inkscape"
   width="210mm"
   height="297mm"
   viewBox="0 0 744.09448819 1052.3622047"
   id="svg2"
   version="1.1"
   inkscape:version="0.91 r13725"
   sodipodi:docname="icon-close.svg">
  <defs
     id="defs4" />
  <sodipodi:namedview
     id="base"
     pagecolor="#ffffff"
     bordercolor="#666666"
     borderopacity="1.0"
     inkscape:pageopacity="0.0"
     inkscape:pageshadow="2"
     inkscape:zoom="0.98994949"
     inkscape:cx="217.10314"
     inkscape:cy="571.72207"
     inkscape:document-units="px"
     inkscape:current-layer="layer1"
     showgrid="false"
     inkscape:window-width="1366"
     inkscape:window-height="721"
     inkscape:window-x="-4"
     inkscape:window-y="-4"
     inkscape:window-maximized="1" />
  <metadata
     id="metadata7">
    <rdf:RDF>
      <cc:Work
         rdf:about="">
        <dc:format>image/svg+xml</dc:format>
        <dc:type
           rdf:resource="http://purl.org/dc/dcmitype/StillImage" />
        <dc:title></dc:title>
      </cc:Work>
    </rdf:RDF>
  </metadata>
  <g
     inkscape:label="Layer 1"
     inkscape:groupmode="layer"
     id="layer1">
    <g
       id="g3889"
       transform="translate(237.90317,438.70728)">
      <g
         id="g3849">
        <path
           id="path3851"
           d="M 62.819,47.97 95.352,15.436 c 0.781,-0.781 0.781,-2.047 0,-2.828 L 83.333,0.586 C 82.958,0.211 82.448,0 81.919,0 81.389,0 80.88,0.211 80.505,0.586 L 47.97,33.121 15.435,0.586 c -0.75,-0.75 -2.078,-0.75 -2.828,0 L 0.587,12.608 c -0.781,0.781 -0.781,2.047 0,2.828 L 33.121,47.97 0.587,80.504 c -0.781,0.781 -0.781,2.047 0,2.828 l 12.02,12.021 c 0.375,0.375 0.884,0.586 1.414,0.586 0.53,0 1.039,-0.211 1.414,-0.586 L 47.97,62.818 80.505,95.353 c 0.375,0.375 0.884,0.586 1.414,0.586 0.529,0 1.039,-0.211 1.414,-0.586 l 12.02,-12.021 c 0.781,-0.781 0.781,-2.048 0,-2.828 L 62.819,47.97 Z"
           inkscape:connector-curvature="0" />
      </g>
      <g
         id="g3853" />
      <g
         id="g3855" />
      <g
         id="g3857" />
      <g
         id="g3859" />
      <g
         id="g3861" />
      <g
         id="g3863" />
      <g
         id="g3865" />
      <g
         id="g3867" />
      <g
         id="g3869" />
      <g
         id="g3871" />
      <g
         id="g3873" />
      <g
         id="g3875" />
      <g
         id="g3877" />
      <g
         id="g3879" />
      <g
         id="g3881" />
    </g>
  </g>
</svg>
